<svg xmlns="http://www.w3.org/2000/svg" xmlns:xlink="http://www.w3.org/1999/xlink" version="1.1" x="0px" y="0px" viewBox="0 0 100 125" enable-background="new 0 0 100 100" xml:space="preserve"><g><rect x="61.065" y="51.57" fill="#000000" width="1.459" height="0.381"/><path fill="#000000" d="M99.349,14.308H96.88c-0.057,0-0.184,0.08-0.209,0.131l-1.123,2.357H93.87   c-0.043,0-0.174,0.071-0.197,0.109L76.126,44.977l-1.15,0.154c-0.107,0.012-0.203,0.089-0.203,0.23v0.892l-0.002,1.074   c0,0.052-0.031,0.113-0.084,0.153c-0.061,0.046-0.268,0.077-0.326,0.055c-0.029-0.012-0.053-0.039-0.053-0.09l-0.021-1.965   c0-0.159-0.125-0.234-0.242-0.229c-0.088,0.008-0.821,0.105-0.821,0.105c-0.142,0.019-0.203,0.125-0.201,0.23v1.968   c0,0.16-0.11,0.18-0.274,0.203c-0.074,0.011-0.189,0.038-0.189-0.083l-0.02-1.954c-0.002-0.166-0.138-0.243-0.26-0.229l-0.81,0.092   c-0.146,0.018-0.211,0.125-0.209,0.232l0.01,1.969c0,0.133-0.121,0.183-0.229,0.197c-0.114,0.019-0.233,0.04-0.233-0.079   l-0.021-1.966c0-0.078-0.029-0.134-0.068-0.171c-0.051-0.05-0.127-0.071-0.199-0.061l-0.803,0.121   c-0.137,0.02-0.197,0.125-0.197,0.229v1.958c0,0.178-0.189,0.191-0.314,0.208c-0.067,0.009-0.147,0.01-0.147-0.089l-0.022-1.966   c-0.002-0.166-0.14-0.241-0.263-0.228l-5.229,0.661c-0.32-0.384-0.623-0.769-0.916-1.133c-0.98-1.223-1.963-2.407-3.09-2.967   v-0.809c0-0.039-0.011-0.073-0.021-0.103c-0.01-0.067-0.053-0.13-0.137-0.168c-0.545-0.243-1.103-0.462-1.668-0.658v-0.355   c0.01-0.108-0.033-0.21-0.154-0.253c-0.484-0.169-0.977-0.32-1.477-0.452c-0.711-0.189-1.439-0.341-2.181-0.451   c-0.353-0.832-0.973-0.986-1.821-0.986h-3.799c-0.846,0-1.467,0.154-1.82,0.985c-0.744,0.111-1.473,0.263-2.186,0.452   c-0.5,0.132-0.99,0.283-1.473,0.452c-0.123,0.042-0.168,0.145-0.158,0.253v0.355c-0.566,0.196-1.121,0.416-1.664,0.658   c-0.086,0.038-0.129,0.101-0.139,0.168c-0.012,0.03-0.021,0.064-0.021,0.103v0.809c-1.127,0.56-2.107,1.744-3.09,2.967   c-0.295,0.365-0.598,0.749-0.916,1.133l-5.23-0.661c-0.125-0.013-0.258,0.062-0.262,0.228l-0.023,1.966   c0,0.1-0.08,0.099-0.148,0.089c-0.125-0.017-0.316-0.03-0.316-0.208v-1.958c0.002-0.104-0.059-0.209-0.197-0.229l-0.803-0.121   c-0.072-0.01-0.145,0.011-0.197,0.061c-0.039,0.037-0.068,0.093-0.068,0.171l-0.02,1.966c0,0.119-0.121,0.098-0.238,0.079   c-0.105-0.014-0.227-0.064-0.227-0.197l0.008-1.969c0.004-0.106-0.061-0.214-0.209-0.232l-0.807-0.092   c-0.125-0.013-0.26,0.064-0.26,0.229l-0.02,1.954c0,0.121-0.115,0.094-0.189,0.083c-0.164-0.023-0.275-0.042-0.275-0.203v-1.968   c0.002-0.105-0.062-0.212-0.201-0.23c0,0-0.734-0.097-0.822-0.105c-0.119-0.005-0.238,0.07-0.242,0.229l-0.021,1.965   c0,0.051-0.023,0.078-0.051,0.089c-0.061,0.022-0.266-0.009-0.33-0.055c-0.055-0.04-0.082-0.101-0.082-0.153l-0.002-1.074V45.36   c0-0.141-0.098-0.218-0.201-0.23l-1.152-0.154L6.673,16.905c-0.023-0.038-0.152-0.109-0.197-0.109H4.798l-1.125-2.357   c-0.025-0.051-0.15-0.131-0.207-0.131H0.997c-0.201,0-0.295,0.148-0.209,0.331l20.168,42.664l-4.801-0.578v-0.531   c0-0.067-0.059-0.127-0.125-0.127l-2.111-0.024L12.7,54.016c-0.082-0.136-0.236-0.095-0.236,0.065v2.205l-1.896-0.229   c-0.144-0.018-0.261,0.088-0.261,0.23v0.875c0,0.096,0.098,0.213,0.191,0.229l1.965,0.359v0.428c0,0.051,0.053,0.115,0.102,0.127   l0.502,0.104v0.33l9.506,1.987l1.176,2.484l-2.117-0.045c-0.316-0.006-0.434,0.1-0.264,0.23l1.473,1.16   c0.17,0.133,0.564,0.245,0.881,0.254l0.793,0.016l0.242,0.521l-2.123-0.046c-0.314-0.006-0.434,0.097-0.264,0.232l1.473,1.157   c0.068,0.056,0.174,0.104,0.297,0.146c0.18,0.062,0.395,0.102,0.582,0.107l0.801,0.016l0.246,0.52l-2.137-0.043   c-0.314-0.006-0.432,0.097-0.262,0.23l1.473,1.16c0.17,0.133,0.562,0.248,0.879,0.252l0.811,0.016l0.244,0.521l-2.145-0.045   c-0.312-0.007-0.434,0.096-0.264,0.229l1.473,1.16c0.172,0.135,0.566,0.246,0.881,0.254l0.82,0.016l0.246,0.521l-2.154-0.045   c-0.314-0.004-0.434,0.096-0.264,0.232l1.473,1.158c0.172,0.135,0.564,0.245,0.879,0.256l0.83,0.016l0.244,0.52l-2.16-0.045   c-0.318-0.006-0.438,0.096-0.266,0.23l1.473,1.16c0.17,0.135,0.564,0.25,0.881,0.254l0.838,0.016l0.248,0.521l-2.176-0.045   c-0.314-0.008-0.432,0.096-0.264,0.231l1.475,1.158c0.168,0.135,0.564,0.246,0.879,0.254l0.85,0.019l0.592,1.258l6.65,7.801   c0.021,0.021,0.146,0.082,0.178,0.082h3.553c0.123,0,0.232-0.107,0.232-0.23v-11.9l-0.016-0.081l-0.484-1.304l-1.691-4.408v-2.02   v-2.559l0.307,0.062v2.496v0.272l0.346,0.156l0.027,2.588c-0.006,0.054-0.004,0.107,0.008,0.166   c0.01,0.058,0.029,0.111,0.055,0.156l1.801,4.742v6.594c-0.01,0.057-0.01,0.123,0.008,0.189c0.012,0.068,0.039,0.127,0.074,0.176   l1.971,4.152c0.033,0.098,0.094,0.186,0.189,0.244c0.09,0.061,0.195,0.08,0.299,0.065l3.551,0.027l0.248,1.071   c0.016,0.068,0.047,0.131,0.092,0.185c0.014,0.017,0.027,0.031,0.061,0.062c0.092,0.073,0.208,0.104,0.321,0.094l2.471,0.002   c0.111,0.01,0.227-0.021,0.317-0.092c0.091-0.072,0.148-0.179,0.166-0.287l0.248-1.033l3.529-0.027   c0.103,0.014,0.209-0.006,0.301-0.066c0.093-0.059,0.158-0.146,0.187-0.243l1.973-4.152c0.033-0.049,0.061-0.106,0.072-0.176   c0.02-0.065,0.021-0.134,0.012-0.188v-6.595l1.799-4.742c0.025-0.045,0.045-0.1,0.055-0.155c0.012-0.06,0.015-0.113,0.006-0.166   l0.029-2.588l0.346-0.156V66.84v-2.496l0.306-0.062v2.559v2.021l-1.694,4.408l-0.484,1.304l-0.016,0.082v11.899   c0,0.123,0.107,0.23,0.232,0.23h3.553c0.029,0,0.158-0.061,0.178-0.082l6.648-7.801l0.594-1.258l0.852-0.019   c0.314-0.008,0.709-0.119,0.879-0.254l1.474-1.158c0.17-0.137,0.052-0.239-0.265-0.231l-2.174,0.045l0.246-0.521l0.838-0.016   c0.316-0.004,0.709-0.119,0.879-0.254l1.476-1.16c0.17-0.135,0.052-0.236-0.267-0.23l-2.161,0.045l0.245-0.52l0.828-0.016   c0.318-0.011,0.711-0.121,0.881-0.256l1.476-1.158c0.17-0.137,0.05-0.236-0.269-0.232l-2.149,0.045l0.244-0.521l0.821-0.016   c0.314-0.008,0.707-0.119,0.877-0.254l1.472-1.16c0.174-0.135,0.056-0.236-0.263-0.229l-2.143,0.045l0.244-0.521l0.809-0.016   c0.316-0.004,0.711-0.119,0.881-0.252l1.476-1.16c0.168-0.135,0.052-0.236-0.267-0.23l-2.135,0.043l0.246-0.52l0.801-0.016   c0.188-0.006,0.402-0.045,0.582-0.107c0.123-0.043,0.229-0.092,0.3-0.146l1.471-1.157c0.17-0.138,0.054-0.238-0.265-0.232   l-2.125,0.046l0.248-0.521l0.791-0.016c0.312-0.009,0.707-0.121,0.875-0.254l1.479-1.16c0.168-0.131,0.05-0.236-0.269-0.23   L76.6,63.213l1.172-2.484l9.509-1.987v-0.33l0.502-0.104c0.047-0.012,0.102-0.076,0.102-0.127v-0.43l1.963-0.359   c0.094-0.016,0.191-0.133,0.191-0.229v-0.875c0-0.143-0.117-0.248-0.26-0.232l-1.896,0.23V54.08c0-0.16-0.154-0.201-0.236-0.066   l-1.219,2.027l-2.113,0.025c-0.063,0-0.123,0.059-0.123,0.127v0.531l-4.801,0.577l20.168-42.664   C99.646,14.457,99.552,14.308,99.349,14.308z M95.841,17.26h0.131L76.909,57.602l-0.313,0.037L95.841,17.26z M95.327,17.258v0.002   L76.05,57.703l-2.342,0.281l7.49-13.13l0.012-1.909l5.858-10.45l0.013-1.908l5.08-8.685l0.014-0.708l2.4-3.936H95.327z    M73.653,54.816V54.68h-0.168v-1.688l3.242-0.672l-3.242,5.682v-1.498h0.174v-0.141L73.653,54.816z M83.602,33.892L83.602,33.892   L93.999,17.26h0.36l-2.358,3.861l-0.012,0.711l-8.388,14.312V33.892z M78.513,47.05v-2.502l0.203-0.002l-0.002-0.138l-0.008-0.886   l-0.002-0.139l-0.191,0.003v-1.348l4.904-7.849v2.296c0,0.116,0.113,0.148,0.174,0.047l3.305-5.644v1.538l-8.383,14.912V47.05z    M77.763,43.237l0.564-0.903v4.716v0.629c-0.002,0.02,0,0.039,0.008,0.056c0.012,0.026,0.035,0.042,0.061,0.048   c0.026,0.006,0.055,0.002,0.074-0.011l2.555-4.538v1.549l-3.262,5.722V43.237z M74.665,47.974h0.002   c0.102-0.017,0.195-0.047,0.295-0.121c0.16-0.118,0.272-0.31,0.272-0.526v-1.074v-0.689l1.023-0.135   c0.041,0.002,0.082-0.008,0.118-0.029c0.019-0.014,0.033-0.027,0.048-0.041c-0.007,0.006-0.011,0.016-0.017,0.022   c0.021-0.017,0.035-0.039,0.074-0.095l1.094-1.752v7.298l-0.545,0.951l-2.365,0.488V47.974z M68.569,46.416l0.021,1.715   c0,0.388,0.321,0.592,0.674,0.547l0.146-0.019c0.318-0.042,0.574-0.327,0.574-0.649v-1.758l0.34-0.051l0.019,1.703   c0,0.462,0.393,0.583,0.76,0.536l0.062-0.008c0.317-0.041,0.571-0.327,0.571-0.65l-0.008-1.766l0.353-0.047l0.014,1.708   c0,0.424,0.355,0.589,0.715,0.541l0.105-0.012c0.317-0.042,0.571-0.328,0.571-0.65V45.79l0.343-0.044l0.018,1.703   c0,0.237,0.137,0.437,0.35,0.519c0.082,0.034,0.17,0.047,0.283,0.032l0.006,4.312l-2.238,0.465v-2.002   c0-0.061-0.047-0.104-0.108-0.092l-5.324,0.941v-1.599c0.451,0.204,0.931,0.355,1.44,0.433c0.306,0.046,0.375-0.415,0.068-0.461   c-0.695-0.104-1.332-0.361-1.924-0.719v-2.582h-0.002L68.569,46.416z M73.302,53.031v5.004l-3.277,0.391V57.08l1.963-0.43v-3.346   L73.302,53.031z M66.212,46.722v2.44c-0.865-0.564-1.627-1.339-2.318-2.142L66.212,46.722z M60.706,43.959   c0.512,0.51,1.021,1.129,1.555,1.792c1.221,1.518,2.572,3.292,4.365,4.186v1.721l-5.92,1.049V43.959z M55.958,40.146   c0.436,0.116,0.86,0.245,1.283,0.388v15.661c0,0.312,0.465,0.312,0.465,0V41.248c0.461,0.165,0.916,0.343,1.36,0.54v9.628   c0,0.309,0.466,0.309,0.466,0v-8.395c0.336,0.196,0.664,0.455,0.987,0.759v9.038c0,0.061,0.047,0.102,0.106,0.09l11.431-2.021   v1.928l-3.513,0.73c-0.09,0.016-0.188,0.137-0.188,0.227v3.568c0,0.102,0.047,0.164,0.109,0.203v1.07l-3.309,0.397v-0.93   l0.438-0.09c0.125,0.131,0.401,0.075,0.401-0.162v-3.474c-0.002-0.16-0.125-0.26-0.28-0.229l-4.861,1.01l-0.069,0.027l-6.828,3.975   l-0.004-2.84l2.137-2.043c0.025-0.027,0.072-0.162,0.066-0.199l-1.679-13.345c-0.021-0.169-0.172-0.228-0.295-0.194l-0.022-0.201   c-0.031-0.213-0.064-0.406-0.107-0.579C54.702,39.845,55.337,39.979,55.958,40.146z M69.837,57.117v1.332l-1.184,0.143v-1.027   c0.092-0.02,0.172-0.096,0.172-0.225L69.837,57.117z M64.976,58.121v0.912l-2.166,0.26v-0.715L64.976,58.121z M62.345,55.303v4.045   l-0.598,0.072l0.004-3.992L62.345,55.303z M57.228,62.08c-0.207,0.033-0.381,0.174-0.477,0.35   c-0.045,0.086-0.074,0.187-0.074,0.285v0.26l-3.176,0.578l0.315-2.715l5.201-0.625l0.004,1.562L57.228,62.08z M59.019,61.965v0.584   l-2.156,0.391v-0.225c0-0.068,0.021-0.139,0.053-0.199c0.07-0.129,0.197-0.227,0.347-0.252L59.019,61.965z M54.722,63.803v1.478   l-1.57,0.329l0.184-1.555L54.722,63.803z M53.638,60.17v-0.389c0.059,0.02,0.131,0.01,0.207-0.037l0.586-0.342v0.674L53.638,60.17z    M54.616,60.053v-0.598l1.67-0.982v1.381L54.616,60.053z M56.472,59.83v-1.516c0-0.039-0.012-0.064-0.027-0.082l4.545-2.646   l0.574-0.121v3.977l-1.867,0.228c-0.018-0.112-0.109-0.211-0.26-0.194L56.472,59.83z M55.271,52.859l-0.799,0.707L53.604,43.04   l0.375-0.448L55.271,52.859z M46.651,40.378c0.057-0.462,0.146-0.795,0.264-1.035c0.434,0.317,0.945,0.58,1.43,0.787   c0.285,0.122,0.467-0.304,0.184-0.426c-0.439-0.19-0.801-0.393-1.053-0.55c-0.117-0.074-0.213-0.137-0.275-0.183   c0.264-0.217,0.619-0.247,1.074-0.247h3.8c0.457,0,0.811,0.029,1.075,0.244c-0.063,0.046-0.159,0.11-0.28,0.185   c-0.25,0.158-0.611,0.36-1.052,0.55c-0.282,0.122-0.102,0.548,0.183,0.426c0.488-0.208,1-0.472,1.432-0.79   c0.121,0.241,0.211,0.576,0.27,1.038l0.234,1.98l-0.496,0.591c-0.008,0.008-0.021,0.059-0.021,0.068l0.884,10.75   c0.01,0.094,0.084,0.127,0.155,0.061l0.845-0.742l0.067,0.523l-2.123,2.028c-0.02,0.017-0.071,0.144-0.071,0.166v4.621   l-0.759,6.416L52.388,67.1l-2.213,0.604L47.961,67.1l-0.031-0.26l-0.752-6.416v-4.621c0-0.022-0.053-0.15-0.072-0.166l-2.123-2.029   l0.064-0.521l0.844,0.74c0.07,0.065,0.145,0.032,0.152-0.062l0.885-10.749c0.002-0.009-0.014-0.06-0.021-0.068l-0.508-0.603   L46.651,40.378z M52.642,69.164v0.121h-0.812v0.258h0.812v0.154h-0.812v0.205v0.26h0.812v1.617c0,0.006,0.016,0.051,0.018,0.057   l1.969,2.551l2.199,0.557l-0.002,3.937l-1.375,4.705h-2.863l0.937-3.836c0.002-0.008,0-0.11-0.002-0.119l-1.248-4.225   c-0.022-0.076-0.146-0.169-0.223-0.169H50.18h-1.873c-0.078,0-0.199,0.093-0.221,0.169l-1.25,4.225   c-0.002,0.009-0.004,0.111-0.002,0.119l0.934,3.836h-2.871l-1.375-4.705l-0.004-3.937l2.201-0.557l1.967-2.551   c0.004-0.006,0.02-0.051,0.02-0.057v-1.617h0.812v-0.26v-0.205h-0.812v-0.154h0.812v-0.258h-0.812v-0.121h0.812v-0.258h-0.812   v-0.34h0.959l1.09-0.498l0.361,0.098c0.008,0.002,0.112,0.002,0.123,0l0.352-0.098l1.094,0.498h0.959v0.34h-0.812v0.258H52.642z    M52.829,71.748v-3.182h4.44l1.442-0.66l-0.028,2.012l-1.838,4.838l-2.093-0.51L52.829,71.748z M43.499,74.756l-1.836-4.838   l-0.029-2.012l1.443,0.66h4.441v3.182l-1.928,2.498L43.499,74.756z M43.593,62.43c-0.094-0.176-0.27-0.315-0.475-0.35l-1.795-0.305   l0.002-1.562l5.201,0.625l0.318,2.715l-3.178-0.578v-0.26C43.667,62.615,43.642,62.516,43.593,62.43z M43.481,62.715v0.225   l-2.156-0.391v-0.584l1.762,0.299c0.146,0.025,0.275,0.123,0.342,0.252C43.464,62.576,43.481,62.646,43.481,62.715z M40.908,59.473   c-0.148-0.016-0.24,0.082-0.256,0.195l-1.869-0.227v-3.978l0.574,0.121l4.545,2.646c-0.018,0.019-0.027,0.043-0.027,0.082v1.517   L40.908,59.473z M44.06,59.854v-1.381l1.67,0.982v0.598L44.06,59.854z M45.915,60.076v-0.674l0.582,0.342   c0.082,0.049,0.16,0.057,0.219,0.037v0.389L45.915,60.076z M45.623,63.803l1.388,0.252l0.182,1.555l-1.57-0.329V63.803z    M46.742,43.04l-0.864,10.526l-0.801-0.703l1.293-10.266L46.742,43.04z M39.826,52.818V43.78c0.326-0.304,0.652-0.562,0.988-0.759   v8.395c0,0.309,0.465,0.309,0.465,0v-9.628c0.445-0.196,0.898-0.375,1.359-0.54v14.947c0,0.311,0.465,0.311,0.465,0V40.533   c0.424-0.143,0.852-0.272,1.285-0.388c0.625-0.166,1.26-0.301,1.906-0.406c-0.041,0.173-0.076,0.365-0.105,0.579l-0.025,0.202   c-0.123-0.036-0.277,0.022-0.299,0.193l-1.682,13.346c-0.004,0.036,0.045,0.172,0.072,0.198l2.133,2.043l-0.002,2.841l-6.828-3.976   l-0.07-0.026l-4.863-1.011c-0.156-0.03-0.277,0.067-0.277,0.229l-0.004,3.473c0,0.238,0.279,0.293,0.404,0.162l0.438,0.09v0.93   l-3.307-0.397v-1.07c0.062-0.039,0.107-0.103,0.107-0.203v-3.567c0-0.09-0.096-0.211-0.184-0.228l-3.514-0.729v-1.928l11.428,2.021   C39.779,52.92,39.826,52.879,39.826,52.818z M38.599,59.42l-0.602-0.072v-4.045l0.6,0.125L38.599,59.42z M37.535,58.578v0.715   l-2.166-0.26v-0.912L37.535,58.578z M31.692,57.564v1.026l-1.186-0.143v-1.332l1.016,0.223   C31.522,57.469,31.599,57.545,31.692,57.564z M30.322,57.08v1.346l-3.277-0.391v-5.004l1.312,0.273v3.346L30.322,57.08z    M38.084,45.752c0.533-0.663,1.043-1.283,1.557-1.792v8.748l-5.922-1.049v-1.721C35.515,49.043,36.865,47.27,38.084,45.752z    M34.134,46.722l2.318,0.298c-0.691,0.803-1.451,1.577-2.318,2.142V46.722z M25.872,48c0.109,0.015,0.199,0.002,0.281-0.032   c0.211-0.082,0.35-0.282,0.35-0.519l0.018-1.703l0.342,0.044v1.764c0,0.322,0.254,0.607,0.572,0.65l0.105,0.012   c0.359,0.048,0.715-0.116,0.715-0.541l0.018-1.708l0.35,0.047l-0.01,1.766c0,0.323,0.256,0.609,0.572,0.65l0.061,0.008   c0.369,0.047,0.76-0.073,0.76-0.536l0.016-1.703l0.342,0.051v1.758c0,0.322,0.256,0.607,0.576,0.649l0.143,0.019   c0.354,0.045,0.676-0.159,0.676-0.547l0.02-1.715l2.172,0.281v2.583c-0.588,0.357-1.225,0.615-1.922,0.719   c-0.307,0.046-0.236,0.507,0.068,0.461c0.51-0.078,0.988-0.229,1.439-0.433v1.599l-5.322-0.94c-0.061-0.013-0.109,0.03-0.109,0.092   v2.002l-2.238-0.465L25.872,48z M26.861,56.505v1.497l-3.242-5.682l3.242,0.672v1.688h-0.168v0.137l-0.008,1.548v0.141H26.861z    M22.768,43.534L22.768,43.534l1.095,1.752c0.037,0.056,0.057,0.078,0.076,0.095c-0.008-0.007-0.01-0.017-0.016-0.022   c0.012,0.014,0.025,0.027,0.045,0.041c0.028,0.016,0.06,0.02,0.092,0.022c-0.008-0.001-0.017-0.002-0.024-0.004   c0.004,0.002,0.008,0.005,0.014,0.006l0.026,0.003c0.003,0,0.007,0.002,0.01,0.002l1.023,0.135v0.689v1.074   c0,0.217,0.113,0.408,0.273,0.526c0.1,0.074,0.193,0.104,0.295,0.121v4.297l-2.367-0.488l-0.543-0.951V43.534z M21.951,47.783   c0.027-0.006,0.049-0.022,0.059-0.048c0.01-0.017,0.016-0.036,0.01-0.056V47.05v-4.716l0.564,0.903v7.269l-3.264-5.722v-1.549   l2.555,4.538C21.896,47.786,21.925,47.789,21.951,47.783z M16.929,36.486V34.19l4.906,7.849v1.348l-0.193-0.003l-0.002,0.139   l-0.008,0.886l-0.002,0.138l0.205,0.002v2.502v0.288L13.45,32.427v-1.538l3.305,5.644C16.813,36.634,16.929,36.602,16.929,36.486z    M6.347,17.26l10.395,16.632v2.252L8.361,21.832l-0.016-0.711L5.986,17.26H6.347z M5.769,17.26l2.404,3.936l0.012,0.708   l5.078,8.685l0.012,1.908l5.859,10.45l0.014,1.909l7.488,13.13l-2.34-0.281L5.019,17.26H5.769z M4.504,17.26L23.75,57.639   l-0.314-0.037L4.372,17.26H4.504z M1.363,14.771H3.32l0.965,2.025H4.007c-0.201,0-0.295,0.148-0.211,0.331l19.104,40.41   l-1.406-0.17L1.363,14.771z M12.718,54.539l1.02,1.693c0.014,0.021,0.084,0.062,0.107,0.062l2.055,0.022v0.377l-3.182-0.381V54.539   z M10.772,56.971v-0.422l8.312,0.998v0.941L10.772,56.971z M12.718,58.076v-0.279l3.182,0.58v0.363L12.718,58.076z M19.233,59.768   l-5.912-1.233v-0.072l2.68,0.56c0.088,0.018,0.154-0.035,0.154-0.123v-0.474l3.078,0.562V59.768z M19.271,57.568l21.871,2.623   v2.319l-21.871-3.989V57.568z M31.274,61.184v0.451c-0.727-0.129-5.066-0.916-11.854-2.33V59.02L31.274,61.184z M38.101,86.322   V86.32l-6.561-7.697L25.97,66.84l-2.48-5.246l1.475,0.309l2.336,4.938l6.877,14.55l4.203,4.932H38.101z M34.399,66.84l0.145,0.775   c0.006,0.035,0.053,0.076,0.092,0.076h0.568l0.086,0.469c0.01,0.053,0.051,0.076,0.094,0.076h2.15v2.375h-3.48l-2.15-3.771   L31.48,66.1l-2.059-3.615l4.334,0.906L34.399,66.84z M33.949,63.436l1.236,0.256v3.148v0.664h-0.473l-0.125-0.664L33.949,63.436z    M37.534,72.236l-6.324-0.025l-2.141-4.488h1.91l1.715,3.029c0.012,0.016,0.062,0.047,0.082,0.047h1.223h3.535l0.008,1.438H37.534z    M37.535,72.514v4.195h-4.18l-2.012-4.221L37.535,72.514z M28.981,67.537l-0.33-0.697l-0.283-0.59h2.982l0.338,0.59l2.15,3.771   h-1.008l-1.715-3.029c-0.012-0.016-0.062-0.045-0.082-0.045H28.981z M37.536,68.051L37.536,68.051h-2.073l-0.07-0.359h2.143V68.051   z M37.535,66.84v0.664h-2.166V66.84v-3.111l2.166,0.455V66.84z M31.246,66.064h-2.963L26.26,61.82l2.914,0.611L31.246,66.064z    M28.136,66.84l4.861,10.201c0.023,0.053,0.152,0.133,0.211,0.133h3.783v0.979h-0.549h-0.959l-0.957,1.658l0.957,1.658h0.855v1.74   l-1.791-2.098L27.806,66.84l-2.279-4.82l0.348,0.072L28.136,66.84z M37.292,78.34l0.854,1.471l-0.854,1.474h-0.85h-0.85   l-0.852-1.474l0.852-1.471h0.85H37.292z M39.288,80.98h-0.156v0.141v5.199h-0.141l-2.469-2.891v-1.962h0.877l0.959-1.657   l-0.959-1.658h-0.223v-0.979h0.59c0.123,0,0.23-0.108,0.23-0.229V76.77h0.26v-0.143v-5.15v-0.141h-0.26V66.84v-2.891l0.604,0.123   v2.768l0.002,2.766l0.686,1.787V80.98z M40.843,73.436l0.471,1.258V86.32h-1.838l-0.008-14.975l-0.686-1.789V66.84v-2.729   l0.342,0.072v2.655v2.063l0.014,0.084L40.843,73.436z M19.42,59.807v-0.313c7.443,1.553,12.039,2.362,12.039,2.362v-0.637   l13.979,2.551v1.474l-1.027-0.216l0.008-0.405l-3.268-0.658l-0.006,0.384L19.42,59.807z M47.104,66.84l0.375,0.119l0.041,0.352   c0.01,0.064,0.105,0.181,0.17,0.195l0.336,0.092l-0.121,0.217h-4.918l-0.78-0.975l-1.65-2.057L47.104,66.84z M43.035,74.717   l0.014,0.055l-0.021-0.098l-1.83-4.826l-0.025-2.149l0.277,0.125l0.033,2.147l1.854,4.885l0.006,4.064l1.359,4.664h-0.184   l-1.461-3.02l-0.002-5.734L43.035,74.717z M44.918,85.418l-1.863-3.92v-0.293l1.248,2.576c0.016,0.033,0.092,0.08,0.125,0.08h0.646   l0.457,1.561L44.918,85.418z M45.726,85.424l-0.459-1.562h2.566l0.387,1.584L45.726,85.424z M50.919,84.184H49.46v-0.385h1.459   V84.184z M50.919,83.057H49.46v-0.385h1.459V83.057z M50.919,81.928H49.46v-0.383h1.459V81.928z M50.919,80.801H49.46v-0.385h1.459   V80.801z M51.255,87.096h-0.146V80.09c0-0.102-0.081-0.188-0.184-0.188h-1.472c-0.104,0-0.188,0.086-0.188,0.188v7.006h-0.168   l-1.801-7.395l1.18-4h1.699h1.697l1.182,4L51.255,87.096z M52.134,85.449l0.387-1.588h2.555l-0.455,1.562L52.134,85.449z    M57.29,81.498l-1.863,3.92l-0.613,0.004l0.455-1.561h0.648c0.033,0,0.111-0.047,0.125-0.08l1.248-2.576V81.498z M59.149,69.848   l-1.84,4.869l-0.02,0.113v5.734l-1.459,3.02h-0.187l1.358-4.664l0.005-4.064l1.854-4.885l0.035-2.147l0.275-0.125L59.149,69.848z    M58.138,66.84l-0.777,0.975h-4.92l-0.123-0.217l0.342-0.092c0.062-0.016,0.164-0.131,0.172-0.195l0.035-0.352l0.373-0.119   l6.549-2.057L58.138,66.84z M60.872,86.32h-1.84V74.693l0.469-1.258l1.705-4.447l0.016-0.084V66.84v-2.656l0.342-0.072v2.729v2.718   l-0.684,1.789L60.872,86.32z M61.212,86.32v-5.199V80.98H61.06v-9.588l0.686-1.787V66.84l0.002-2.768l0.599-0.123v2.891v4.496   h-0.259v0.141v5.15v0.143h0.259v0.174c0,0.121,0.108,0.23,0.233,0.23h0.593v0.979h-0.228l-0.957,1.658l0.957,1.658h0.877v1.961   l-2.465,2.891H61.212z M65.71,67.691c0.037,0,0.086-0.041,0.092-0.076l0.145-0.775l0.646-3.449l4.334-0.906l-2.06,3.615   l-0.422,0.74l-2.152,3.771h-3.481v-2.375h2.151c0.043,0,0.084-0.023,0.094-0.076l0.086-0.469H65.71z M65.159,67.504V66.84v-3.148   l1.236-0.256l-0.637,3.404l-0.125,0.664H65.159z M64.008,81.469h0.853l0.959-1.658l-0.959-1.658h-0.959h-0.545v-0.979h3.783   c0.057,0,0.184-0.08,0.207-0.133L72.21,66.84l2.262-4.748l0.348-0.072l-2.279,4.82l-6.744,14.271l-1.788,2.098V81.469z    M63.901,81.283h-0.848l-0.852-1.473l0.852-1.472h0.848h0.852l0.853,1.472l-0.853,1.473H63.901z M62.81,76.71L62.81,76.71v-4.196   l6.193-0.024l-2.012,4.221H62.81z M71.362,67.537h-2.051c-0.02,0-0.07,0.029-0.08,0.045l-1.715,3.029h-1.01l2.152-3.771l0.336-0.59   h2.981l-0.28,0.59L71.362,67.537z M72.065,66.064h-2.967l2.072-3.633l2.916-0.611L72.065,66.064z M64.976,66.84v0.664H62.81V66.84   v-2.656l2.166-0.455V66.84z M64.954,67.691l-0.068,0.358H62.81v-0.358H64.954z M66.347,70.798L66.347,70.798l1.221,0.001   c0.021,0,0.074-0.031,0.08-0.047l1.719-3.029h1.906l-2.137,4.488l-6.33,0.025l0.004-1.438H66.347z M74.376,66.84l-5.57,11.783   l-6.561,7.697h-0.279l4.205-4.932l6.877-14.549l2.334-4.938l1.473-0.31L74.376,66.84z M80.926,59.807L80.926,59.807l-21.724,4.539   l-0.009-0.383l-3.266,0.658l0.008,0.406l-1.028,0.215V63.77l13.979-2.551v0.637c0,0,4.594-0.811,12.039-2.362V59.807z    M69.071,61.635v-0.451l11.854-2.164v0.285C74.136,60.719,69.8,61.506,69.071,61.635z M87.628,58.076l-3.185,0.664v-0.363   l3.185-0.58V58.076z M84.444,56.318l2.055-0.023c0.027,0,0.097-0.041,0.109-0.062l1.02-1.692v1.774l-3.184,0.381V56.318z    M81.261,57.547l8.312-0.998v0.422l-8.312,1.519V57.547z M81.11,58.986l3.08-0.562v0.473c0,0.088,0.068,0.142,0.154,0.123   l2.682-0.559v0.072l-5.916,1.234V58.986z M81.075,57.568v0.953l-21.871,3.989v-2.319L81.075,57.568z M78.854,57.367l-1.408,0.17   l19.103-40.41c0.086-0.183-0.009-0.331-0.209-0.331h-0.277l0.966-2.025h1.956L78.854,57.367z"/><rect x="61.065" y="50.442" fill="#000000" width="1.459" height="0.384"/><rect x="61.065" y="49.313" fill="#000000" width="1.459" height="0.385"/><path fill="#000000" d="M76.296,45.425c0.006-0.002,0.01-0.005,0.016-0.006c-0.018,0.004-0.031,0.006-0.053,0.01L76.296,45.425z"/><rect x="61.065" y="48.187" fill="#000000" width="1.459" height="0.384"/><path fill="#000000" d="M50.72,59.467v-4.402c-0.111,0.027-0.229,0.045-0.348,0.045h-0.07v4.984c0,0.879,0.711,1.59,1.59,1.59   h0.541l0.059-0.629H52.31C51.431,61.055,50.72,60.344,50.72,59.467z"/><rect x="37.824" y="51.57" fill="#000000" width="1.457" height="0.381"/><path fill="#000000" d="M65.522,74.486v1.535c0,0.305,0.469,0.305,0.469,0v-1.535C65.991,74.176,65.522,74.176,65.522,74.486z"/><path fill="#000000" d="M34.822,76.021v-1.535c0-0.312-0.465-0.312-0.465,0v1.535C34.356,76.326,34.822,76.326,34.822,76.021z"/><rect x="37.824" y="49.313" fill="#000000" width="1.457" height="0.385"/><path fill="#000000" d="M36.675,76.021v-1.535c0-0.312-0.463-0.312-0.463,0v1.535C36.211,76.326,36.675,76.326,36.675,76.021z"/><path fill="#000000" d="M35.437,76.021v-1.535c0-0.312-0.465-0.312-0.465,0v1.535C34.972,76.326,35.437,76.326,35.437,76.021z"/><rect x="37.824" y="48.187" fill="#000000" width="1.457" height="0.384"/><path fill="#000000" d="M36.05,76.021v-1.535c0-0.312-0.467-0.312-0.467,0v1.535C35.583,76.326,36.05,76.326,36.05,76.021z"/><rect x="37.824" y="50.442" fill="#000000" width="1.457" height="0.384"/><path fill="#000000" d="M48.339,66.467l0.779,0.373l1.057,0.504l1.064-0.504l0.786-0.373l0.412-4.605h-4.512L48.339,66.467z    M51.601,62.809l-0.053,0.56h-2.16l0.055,0.58h2.059l-0.157,1.737l-1.16,0.32l-1.158-0.32l-0.079-0.91h0.569l0.045,0.464   l0.623,0.18l0.633-0.18l0.062-0.73h-1.95l-0.154-1.7H51.601z"/><path fill="#000000" d="M63.671,74.486v1.535c0,0.305,0.463,0.305,0.463,0v-1.535C64.134,74.176,63.671,74.176,63.671,74.486z"/><path fill="#000000" d="M64.296,74.486v1.535c0,0.305,0.463,0.305,0.463,0v-1.535C64.759,74.176,64.296,74.176,64.296,74.486z"/><path fill="#000000" d="M64.909,74.486v1.535c0,0.305,0.465,0.305,0.465,0v-1.535C65.374,74.176,64.909,74.176,64.909,74.486z"/><path fill="#000000" d="M48.486,76.002l0.703,3.58c0.023,0.121,0.207,0.086,0.182-0.035l-0.701-3.582   C48.644,75.844,48.459,75.879,48.486,76.002z"/><path fill="#000000" d="M51.687,75.965l-0.703,3.582c-0.023,0.121,0.158,0.156,0.18,0.035l0.709-3.58   C51.894,75.879,51.71,75.844,51.687,75.965z"/><path fill="#000000" d="M48.451,61.686v-0.002c0.878,0,1.589-0.711,1.589-1.59v-4.984c-0.146-0.004-0.287-0.028-0.418-0.073v4.432   c0,0.877-0.711,1.589-1.591,1.589h-0.178l0.057,0.629H48.451z"/><path fill="#000000" d="M50.063,54.648h0.303c0.51,0,0.928-0.418,0.928-0.929V40.918c0-0.512-0.418-0.929-0.928-0.929h-0.303   c-0.512,0-0.926,0.417-0.926,0.929V53.72C49.138,54.23,49.552,54.648,50.063,54.648z"/></g><text x="0" y="115" fill="#000000" font-size="5px" font-weight="bold" font-family="'Helvetica Neue', Helvetica, Arial-Unicode, Arial, Sans-serif">DocotorJ</text><text x="0" y="120" fill="#000000" font-size="5px" font-weight="bold" font-family="'Helvetica Neue', Helvetica, Arial-Unicode, Arial, Sans-serif">from the Noun Project</text></svg>